<?xml version="1.0" standalone="no"?>
<!DOCTYPE svg PUBLIC "-//W3C//DTD SVG 20010904//EN"
 "http://www.w3.org/TR/2001/REC-SVG-20010904/DTD/svg10.dtd">
<svg version="1.0" xmlns="http://www.w3.org/2000/svg"
 width="365.000000pt" height="365.000000pt" viewBox="0 0 365.000000 365.000000"
 preserveAspectRatio="xMidYMid meet">
<metadata>
Created by potrace 1.11, written by Peter Selinger 2001-2013
</metadata>
<g transform="translate(0.000000,365.000000) scale(0.100000,-0.100000)"
fill="#000000" stroke="none">
<path d="M1607 3630 c-27 -5 -70 -11 -95 -15 -203 -27 -487 -138 -687 -269
-280 -183 -521 -459 -655 -750 -54 -117 -106 -265 -126 -356 -39 -184 -44
-239 -40 -450 2 -118 6 -224 8 -235 3 -11 9 -40 13 -65 4 -25 18 -88 32 -140
151 -576 589 -1052 1149 -1250 110 -38 260 -77 344 -87 82 -10 478 -10 545 0
377 57 744 244 1015 517 412 414 597 975 514 1560 -44 305 -192 638 -393 884
-72 87 -216 227 -296 286 -33 25 -62 47 -65 51 -12 13 -190 118 -250 146 -146
70 -307 123 -460 152 -30 6 -68 13 -85 17 -47 10 -415 13 -468 4z m623 -479
c69 -42 130 -117 174 -212 31 -69 62 -166 72 -228 3 -14 7 -33 9 -41 2 -8 7
-40 10 -70 3 -30 8 -68 10 -85 2 -16 4 -44 4 -61 l1 -31 86 -7 86 -7 34 35
c56 57 137 71 211 35 48 -23 99 -89 105 -134 2 -23 14 -35 56 -60 67 -39 128
-98 155 -150 28 -55 30 -60 31 -140 1 -60 -4 -80 -31 -136 -51 -104 -169 -211
-328 -299 -33 -18 -62 -35 -64 -36 -2 -2 8 -27 22 -56 117 -241 136 -461 49
-577 -39 -52 -60 -69 -122 -99 -46 -22 -69 -26 -140 -26 -125 0 -196 17 -353
85 -50 21 -91 38 -92 36 -1 -1 -18 -33 -39 -70 -85 -153 -189 -266 -296 -320
-56 -28 -75 -32 -140 -32 -60 0 -85 5 -123 25 -45 22 -147 115 -147 133 0 4
-10 24 -23 45 -57 91 -106 281 -123 472 -3 41 -9 78 -13 82 -3 3 -43 9 -87 13
-79 6 -82 6 -102 -19 -25 -33 -96 -65 -141 -66 -47 0 -116 35 -145 74 -13 17
-29 50 -35 73 -10 35 -19 46 -64 71 -66 38 -131 103 -160 162 -34 70 -31 186
8 263 50 101 174 214 322 294 37 20 69 37 71 38 1 1 -13 36 -31 77 -136 298
-126 513 30 628 72 53 194 73 303 49 19 -4 46 -10 60 -13 39 -7 128 -40 204
-75 38 -18 70 -31 71 -29 1 2 13 23 25 48 64 127 196 286 272 327 78 42 113
51 188 49 65 -1 82 -6 130 -35z"/>
<path d="M2040 3060 c-96 -28 -191 -128 -290 -303 -18 -32 -31 -59 -29 -61 2
-1 49 -32 104 -68 55 -37 140 -98 189 -138 l88 -71 122 5 c66 2 131 5 144 5
21 1 22 4 17 54 -4 28 -8 66 -9 83 -3 28 -13 92 -21 134 -8 44 -41 142 -65
195 -58 131 -154 194 -250 165z"/>
<path d="M1108 2760 c-160 -46 -178 -245 -46 -518 24 -49 34 -62 47 -56 9 4
85 31 170 60 84 29 155 55 158 57 2 3 28 74 57 158 29 85 56 161 60 170 6 14
-6 23 -59 48 -146 69 -309 103 -387 81z"/>
<path d="M1628 2483 c-20 -54 -39 -109 -43 -122 -8 -26 -10 -26 85 -7 14 3 68
12 120 21 158 26 151 19 78 74 -85 64 -185 131 -195 131 -5 0 -25 -44 -45 -97z"/>
<path d="M2245 2299 c-2 -3 29 -38 70 -79 l73 -73 4 59 c6 102 7 100 -73 99
-39 0 -72 -3 -74 -6z"/>
<path d="M2514 2227 c-1 -40 -2 -104 -4 -143 l-3 -71 57 -69 c58 -70 211 -285
218 -306 8 -23 194 94 274 173 140 135 130 274 -25 367 l-34 21 -36 -29 c-47
-37 -94 -49 -151 -37 -61 13 -105 48 -132 107 -18 40 -28 50 -48 51 -14 1 -45
3 -71 4 l-45 3 0 -71z"/>
<path d="M2017 2284 c-1 -1 -33 -5 -72 -9 -38 -4 -72 -8 -75 -10 -3 -1 -27 -6
-55 -9 -40 -6 -148 -28 -245 -51 -8 -2 -18 -4 -22 -4 -5 -1 -27 -84 -44 -166
-2 -11 -8 -42 -14 -70 -5 -27 -12 -72 -16 -100 -3 -27 -7 -61 -9 -75 -2 -14
-7 -46 -10 -72 l-7 -47 155 -155 c153 -152 157 -155 194 -151 87 9 254 35 345
54 158 33 144 24 161 99 28 118 48 232 62 347 3 28 8 65 10 83 5 31 -4 41
-149 187 -128 129 -158 155 -181 153 -14 -1 -27 -3 -28 -4z m7 -308 c42 -32
76 -100 76 -152 -1 -182 -242 -251 -341 -97 -27 43 -30 55 -27 109 4 72 35
121 96 154 53 29 149 22 196 -14z"/>
<path d="M1295 2124 c-55 -20 -108 -38 -117 -41 -10 -3 -18 -9 -18 -13 0 -11
74 -124 130 -197 56 -74 49 -81 75 77 9 52 22 121 29 153 7 31 11 57 7 57 -3
-1 -51 -17 -106 -36z"/>
<path d="M957 1975 c-231 -132 -326 -274 -265 -395 24 -46 109 -120 139 -120
9 0 24 9 33 19 21 23 92 49 121 45 70 -10 90 -19 124 -53 21 -21 44 -55 51
-75 10 -31 16 -36 43 -36 18 -1 49 -3 70 -6 31 -5 37 -3 37 13 0 10 3 65 6
123 4 58 6 115 5 127 0 12 -32 61 -71 110 -39 48 -101 134 -138 190 -37 56
-69 102 -72 102 -3 1 -40 -19 -83 -44z"/>
<path d="M2482 1813 c-3 -40 -31 -199 -47 -266 -10 -44 -11 -58 -2 -54 7 2 63
21 125 42 61 21 112 42 112 46 0 15 -169 258 -180 259 -3 0 -7 -12 -8 -27z"/>
<path d="M1439 1485 c-6 -128 -5 -135 16 -136 31 -2 129 1 132 4 1 2 -31 36
-72 77 -58 58 -75 70 -76 55z"/>
<path d="M2650 1439 c-41 -16 -113 -41 -160 -56 -47 -14 -90 -31 -96 -37 -6
-6 -21 -45 -34 -86 -12 -41 -37 -115 -56 -164 -19 -48 -34 -89 -34 -91 0 -10
192 -90 242 -101 81 -17 110 -21 149 -19 182 8 239 150 158 397 -23 69 -79
188 -88 187 -3 0 -40 -14 -81 -30z"/>
<path d="M2210 1309 c-52 -13 -256 -49 -285 -51 -14 -1 -25 -5 -25 -8 1 -6 65
-54 173 -128 51 -36 82 -51 88 -45 10 10 92 234 87 238 -2 1 -19 -2 -38 -6z"/>
<path d="M1689 1235 c-3 -2 -59 -6 -125 -8 l-119 -4 1 -34 c5 -221 80 -464
171 -551 58 -56 143 -69 213 -33 48 25 126 101 175 170 43 62 109 175 103 179
-136 87 -263 180 -363 264 -21 18 -48 26 -56 17z"/>
</g>
</svg>
